<svg width="75" height="60" viewBox="0 0 75 60" fill="none" xmlns="http://www.w3.org/2000/svg">
<g filter="url(#filter0_d)">
<path d="M58.6833 39.4846H62.8546C63.3892 39.4846 63.8226 39.0514 63.8226 38.5167V5.13934C63.8226 4.60462 63.3892 4.17136 62.8546 4.17136H11.2263C10.6918 4.17136 10.2584 4.60462 10.2584 5.13934V38.5167C10.2584 39.0514 10.6918 39.4846 11.2263 39.4846H54.1531C54.6877 39.4846 55.1211 39.0514 55.1211 38.5167C55.1211 37.9819 54.6877 37.5487 54.1531 37.5487H12.1943V6.10732H61.8867V37.5487H58.6833C58.1487 37.5487 57.7153 37.9819 57.7153 38.5167C57.7153 39.0514 58.1487 39.4846 58.6833 39.4846Z" fill="#AE7C78"/>
<path d="M69.1129 41.72H67.9952V3.57508C67.9952 1.60375 66.3908 0 64.4189 0H19.538C19.0035 0 18.5701 0.433269 18.5701 0.967982C18.5701 1.5027 19.0035 1.93596 19.538 1.93596H64.4189C65.3233 1.93596 66.0593 2.67124 66.0593 3.57508V41.72H8.02164V3.57508C8.02164 2.67124 8.75757 1.93596 9.66205 1.93596H15.0131C15.5476 1.93596 15.981 1.5027 15.981 0.967982C15.981 0.433269 15.5476 0 15.0131 0H9.66205C7.69008 0 6.08568 1.60375 6.08568 3.57508V41.72H4.96798C4.4334 41.72 4 42.1533 4 42.688V47.9035C4 50.1624 5.83775 52 8.0965 52H12.8474C13.3819 52 13.8153 51.5667 13.8153 51.032C13.8153 50.4973 13.3819 50.064 12.8474 50.064H8.0965C6.90524 50.064 5.93596 49.0948 5.93596 47.9035V43.656H29.8099L30.3296 45.3192C30.7986 46.8199 32.1701 47.8281 33.7423 47.8281H40.3383C41.9106 47.8281 43.282 46.8199 43.751 45.3192L44.2708 43.656H68.1449V47.9035C68.1449 49.0948 67.1757 50.064 65.9844 50.064H17.3775C16.8429 50.064 16.4095 50.4973 16.4095 51.032C16.4095 51.5667 16.8429 52 17.3775 52H65.9844C68.2432 52 70.0809 50.1624 70.0809 47.9035V42.688C70.0809 42.1533 69.6475 41.72 69.1129 41.72ZM41.9033 44.7417C41.6883 45.4299 41.0594 45.8922 40.3384 45.8922H33.7425C33.0215 45.8922 32.3926 45.4299 32.1776 44.7417L31.8383 43.656H42.2426L41.9033 44.7417Z" fill="#AE7C78"/>
<path d="M28.3053 23.3175C28.7667 23.3175 29.164 22.9919 29.2545 22.5394L30.4279 16.6724C30.4847 16.3881 30.4111 16.0932 30.2274 15.8689C30.0434 15.6447 29.7688 15.5146 29.4788 15.5146H22.0473C21.5127 15.5146 21.0793 15.9478 21.0793 16.4826C21.0793 17.0173 21.5127 17.4505 22.0473 17.4505H28.298L27.5117 21.3816H19.9856L18.6969 14.3523C18.6126 13.8926 18.2121 13.559 17.7448 13.559H15.3981C14.8635 13.559 14.4301 13.9923 14.4301 14.527C14.4301 15.0617 14.8635 15.495 15.3981 15.495H16.9383L18.2111 22.4376V26.5217C18.2111 27.0564 18.6445 27.4897 19.1791 27.4897H19.2244C19.1958 27.5969 19.1791 27.7091 19.1791 27.8254C19.1791 28.5454 19.7628 29.1292 20.4829 29.1292C21.0736 29.1292 21.5718 28.7362 21.7321 28.1975C21.7702 28.075 21.7907 27.9448 21.7907 27.8098C21.7907 27.6991 21.7755 27.5923 21.7495 27.4897H23.9179C23.913 27.509 23.9071 27.5281 23.9031 27.5479C23.8836 27.6375 23.8727 27.7301 23.8727 27.8255C23.8727 28.5455 24.4565 29.1293 25.1766 29.1293C25.8073 29.1293 26.3334 28.6813 26.4542 28.0862C26.4734 27.9972 26.4841 27.9047 26.4841 27.8099C26.4841 27.6993 26.4689 27.5924 26.4429 27.4898H26.7411C27.2757 27.4898 27.7091 27.0565 27.7091 26.5218C27.7091 25.9871 27.2757 25.5538 26.7411 25.5538H20.1472V23.3178H28.3053V23.3175Z" fill="#AE7C78"/>
<path d="M41.3983 11.3977C41.3983 10.863 40.9649 10.4297 40.4303 10.4297H36.2583C35.7237 10.4297 35.2903 10.863 35.2903 11.3977V15.5698C35.2903 16.1046 35.7237 16.5378 36.2583 16.5378H40.4303C40.9649 16.5378 41.3983 16.1046 41.3983 15.5698V11.3977ZM39.4623 14.6019H37.2262V12.3658H39.4623V14.6019Z" fill="#AE7C78"/>
<path d="M44.6022 16.5378H53.4677C54.0023 16.5378 54.4357 16.1046 54.4357 15.5699C54.4357 15.0353 54.0023 14.6021 53.4677 14.6021H44.6022C44.0676 14.6021 43.6342 15.0353 43.6342 15.5699C43.6342 16.1046 44.0676 16.5378 44.6022 16.5378Z" fill="#AE7C78"/>
<path d="M44.6022 12.3658H58.6829C59.2174 12.3658 59.6508 11.9325 59.6508 11.3978C59.6508 10.8631 59.2174 10.4298 58.6829 10.4298H44.6022C44.0676 10.4298 43.6342 10.8631 43.6342 11.3978C43.6342 11.9325 44.0676 12.3658 44.6022 12.3658Z" fill="#AE7C78"/>
<path d="M41.3983 19.7419C41.3983 19.2072 40.9649 18.774 40.4303 18.774H36.2583C35.7237 18.774 35.2903 19.2072 35.2903 19.7419V23.9139C35.2903 24.4487 35.7237 24.8819 36.2583 24.8819H40.4303C40.9649 24.8819 41.3983 24.4487 41.3983 23.9139V19.7419ZM39.4623 22.946H37.2262V20.7099H39.4623V22.946Z" fill="#AE7C78"/>
<path d="M44.6022 24.8818H53.4677C54.0023 24.8818 54.4357 24.4486 54.4357 23.9139C54.4357 23.3793 54.0023 22.946 53.4677 22.946H44.6022C44.0676 22.946 43.6342 23.3793 43.6342 23.9139C43.6342 24.4486 44.0676 24.8818 44.6022 24.8818Z" fill="#AE7C78"/>
<path d="M44.6022 20.7099H58.6829C59.2174 20.7099 59.6508 20.2767 59.6508 19.7419C59.6508 19.2072 59.2174 18.774 58.6829 18.774H44.6022C44.0676 18.774 43.6342 19.2072 43.6342 19.7419C43.6342 20.2767 44.0676 20.7099 44.6022 20.7099Z" fill="#AE7C78"/>
<path d="M40.4303 27.1181H36.2583C35.7237 27.1181 35.2903 27.5514 35.2903 28.0861V32.2581C35.2903 32.7928 35.7237 33.2261 36.2583 33.2261H40.4303C40.9649 33.2261 41.3983 32.7928 41.3983 32.2581V28.0861C41.3983 27.5515 40.9649 27.1181 40.4303 27.1181ZM39.4623 31.2901H37.2262V29.0541H39.4623V31.2901Z" fill="#AE7C78"/>
<path d="M44.6022 31.2901C44.0676 31.2901 43.6342 31.7233 43.6342 32.2581C43.6342 32.7928 44.0676 33.226 44.6022 33.226H53.4678C54.0023 33.226 54.4357 32.7928 54.4357 32.2581C54.4357 31.7233 54.0023 31.2901 53.4678 31.2901H44.6022Z" fill="#AE7C78"/>
<path d="M59.6508 28.0861C59.6508 27.5514 59.2174 27.1182 58.6828 27.1182H44.6022C44.0676 27.1182 43.6342 27.5514 43.6342 28.0861C43.6342 28.6207 44.0676 29.054 44.6022 29.054H58.6828C59.2174 29.054 59.6508 28.6207 59.6508 28.0861Z" fill="#AE7C78"/>
</g>
<defs>
<filter id="filter0_d" x="0" y="0" width="74.0809" height="60" filterUnits="userSpaceOnUse" color-interpolation-filters="sRGB">
<feFlood flood-opacity="0" result="BackgroundImageFix"/>
<feColorMatrix in="SourceAlpha" type="matrix" values="0 0 0 0 0 0 0 0 0 0 0 0 0 0 0 0 0 0 127 0" result="hardAlpha"/>
<feOffset dy="4"/>
<feGaussianBlur stdDeviation="2"/>
<feComposite in2="hardAlpha" operator="out"/>
<feColorMatrix type="matrix" values="0 0 0 0 0 0 0 0 0 0 0 0 0 0 0 0 0 0 0.25 0"/>
<feBlend mode="normal" in2="BackgroundImageFix" result="effect1_dropShadow"/>
<feBlend mode="normal" in="SourceGraphic" in2="effect1_dropShadow" result="shape"/>
</filter>
</defs>
</svg>
